<?xml version="1.0"?>
<!--Icons from directory ""-->
<svg xmlns="http://www.w3.org/2000/svg" width="29" height="72" viewBox="0 0 29 76"><svg width="29" viewBox="9 9 43 43" height="36" id="htmlacademy-hover" y="0"><path d="m30.2 5h-0.2l-19.7 2.1v36.2l19.7 11.7 19.7-11.7v-36.2l-19.5-2.1zm17 36.8l-17.2 10.2-17.2-10.2v-14.8l17.1 10.2v1.8l-11.7-7v1.8l11.8 7.1v1.9l-11.8-7v1.8l11.8 7 11.9-7.1v-7.6l5.3-3.2v15.1zm-0.1-17l-4.7 2.8-2.2 1.3-10.3-6.1v1.8l8.8 5.3h-0.1l-0.2 0.1-1.3 0.7-7.3-4.3v1.8l5.8 3.4-1.4 0.9-4.3-2.6v1.8l2.9 1.7-2.9 1.7-17-10.1 17-10.2 17.2 10zm0.1-1.8l-17.3-10.2-17.1 10.2v-13.6l17.2-1.8 17.2 1.8v13.6z" fill="#283645"/></svg><svg width="29" viewBox="9 8 43 42" height="36" id="htmlacademy" y="36"><path d="m30.2 5h-0.2l-19.7 2.1v36.2l19.7 11.7 19.7-11.7v-36.2l-19.5-2.1zm17 36.8l-17.2 10.2-17.2-10.2v-14.8l17.1 10.2v1.8l-11.7-7v1.8l11.8 7.1v1.9l-11.8-7v1.8l11.8 7 11.9-7.1v-7.6l5.3-3.2v15.1zm-0.1-17l-4.7 2.8-2.2 1.3-10.3-6.1v1.8l8.8 5.3h-0.1l-0.2 0.1-1.3 0.7-7.3-4.3v1.8l5.8 3.4-1.4 0.9-4.3-2.6v1.8l2.9 1.7-2.9 1.7-17-10.1 17-10.2 17.2 10zm0.1-1.8l-17.3-10.2-17.1 10.2v-13.6l17.2-1.8 17.2 1.8v13.6z" fill="#d22856"/></svg></svg>
