<?xml version="1.0"?>
<!--Icons from directory ""-->
<svg xmlns="http://www.w3.org/2000/svg" width="58" height="532" viewBox="0 0 58 532"><svg xmlns:xlink="http://www.w3.org/1999/xlink" id="icon-editor-contrast-hover" xml:space="preserve" height="40" viewBox="-39.422 -11.96 39.92 39.92" width="40" version="1.0" y="0" x="0px" enable-background="new -35.422 -7.96 31.92 31.92"><path d="m-19.462-3.96c6.595 0 11.96 5.365 11.96 11.96s-5.365 11.96-11.96 11.96-11.96-5.365-11.96-11.96 5.365-11.96 11.96-11.96m0-4c-8.814 0-15.96 7.145-15.96 15.96 0 8.813 7.146 15.96 15.96 15.96s15.96-7.147 15.96-15.96c0-8.815-7.146-15.96-15.96-15.96z" fill="#d22856"/><path d="m-19.462 16.331c4.706 0 8.52-3.813 8.52-8.52 0-4.705-3.813-8.519-8.52-8.519" fill="#d22856"/></svg><svg xmlns:xlink="http://www.w3.org/1999/xlink" id="icon-editor-contrast" xml:space="preserve" height="40" viewBox="-39.422 -11.96 39.92 39.92" width="40" version="1.0" y="40" x="0px" enable-background="new -35.422 -7.96 31.92 31.92">    <path d="m-19.462-3.96c6.595 0 11.96 5.365 11.96 11.96s-5.365 11.96-11.96 11.96-11.96-5.365-11.96-11.96 5.365-11.96 11.96-11.96m0-4c-8.814 0-15.96 7.145-15.96 15.96 0 8.813 7.146 15.96 15.96 15.96s15.96-7.147 15.96-15.96c0-8.815-7.146-15.96-15.96-15.96z" fill="#283645"/>    <path d="m-19.462 16.331c4.706 0 8.52-3.813 8.52-8.52 0-4.705-3.813-8.519-8.52-8.519" fill="#283645"/></svg><svg xmlns:xlink="http://www.w3.org/1999/xlink" id="icon-editor-crop-hover" xml:space="preserve" height="56" viewBox="-4 -4 56 56" width="56" version="1.0" y="80" x="0px" enable-background="new 0 0 48 48"><path d="m0 0h48v48h-48v-48z" fill="none"/><path d="m34 30h4v-16c0-2.21-1.79-4-4-4h-16v4h16v16zm-20 4v-32h-4v8h-8v4h8v20c0 2.21 1.79 4 4 4h20v8h4v-8h8v-4h-32z" fill="#d22856"/></svg><svg xmlns:xlink="http://www.w3.org/1999/xlink" id="icon-editor-crop" xml:space="preserve" height="56" viewBox="-4 -4 56 56" width="56" version="1.0" y="136" x="0px" enable-background="new 0 0 48 48">    <path d="m0 0h48v48h-48v-48z" fill="none"/>    <path d="m34 30h4v-16c0-2.21-1.79-4-4-4h-16v4h16v16zm-20 4v-32h-4v8h-8v4h8v20c0 2.21 1.79 4 4 4h20v8h4v-8h8v-4h-32z" fill="#283645"/></svg><svg xmlns:xlink="http://www.w3.org/1999/xlink" id="icon-editor-fill-hover" xml:space="preserve" height="56" viewBox="-4 -4 56 56" width="56" version="1.0" y="192" x="0px" enable-background="new 0 0 48 48"><path d="m0 0h48v48h-48v-48z" fill="none"/><path d="m33.12 17.88l-17.88-17.88-2.83 2.83 4.76 4.76-10.29 10.29c-1.17 1.17-1.17 3.07 0 4.24l11 11c0.58 0.59 1.35 0.88 2.12 0.88s1.54-0.29 2.12-0.88l11-11c1.17-1.17 1.17-3.07 0-4.24zm-22.71 2.12l9.59-9.58 9.59 9.58h-19.18zm27.59 3s-4 4.33-4 7c0 2.21 1.79 4 4 4s4-1.79 4-4c0-2.67-4-7-4-7z" fill="#d22856"/><rect y="40" width="48" height="3" fill="#d22856"/></svg><svg xmlns:xlink="http://www.w3.org/1999/xlink" id="icon-editor-fill" xml:space="preserve" height="56" viewBox="-4 -4 56 56" width="56" version="1.0" y="248" x="0px" enable-background="new 0 0 48 48">    <path d="m0 0h48v48h-48v-48z" fill="none"/>    <path d="m33.12 17.88l-17.88-17.88-2.83 2.83 4.76 4.76-10.29 10.29c-1.17 1.17-1.17 3.07 0 4.24l11 11c0.58 0.59 1.35 0.88 2.12 0.88s1.54-0.29 2.12-0.88l11-11c1.17-1.17 1.17-3.07 0-4.24zm-22.71 2.12l9.59-9.58 9.59 9.58h-19.18zm27.59 3s-4 4.33-4 7c0 2.21 1.79 4 4 4s4-1.79 4-4c0-2.67-4-7-4-7z" fill="#283645"/>    <rect y="40" width="48" height="3" fill="#283645"/></svg><svg xmlns:xlink="http://www.w3.org/1999/xlink" id="icon-menu-burger-hover" xml:space="preserve" height="32" viewBox="-4 -4 57.945 32.007" width="58" version="1.0" y="304" x="0px" enable-background="new 0 0 49.945 24.007"><g id="icon-menu-burger-hover-miu">	<g id="icon-menu-burger-hover-editor_list_view_hambuger_menu_glyph">			<path id="icon-menu-burger-hover-path-1" d="m1.137 0c-0.627 0-1.137 0.428-1.137 1.01v1.981c0 0.558 0.494 1.01 1.139 1.01h47.671c0.628 0 1.138-0.428 1.138-1.01v-1.981c0-0.558-0.494-1.01-1.138-1.01h-47.673zm0 10.003c-0.627 0-1.137 0.428-1.137 1.01v1.98c0 0.557 0.494 1.01 1.139 1.01h47.671c0.628 0 1.138-0.428 1.138-1.01v-1.98c0-0.558-0.494-1.01-1.138-1.01h-47.673zm0 10.002c-0.627 0-1.137 0.429-1.137 1.011v1.981c0 0.557 0.494 1.01 1.139 1.01h47.671c0.628 0 1.138-0.428 1.138-1.01v-1.981c0-0.558-0.494-1.011-1.138-1.011h-47.673z" fill="#d22856"/>			<path id="icon-menu-burger-hover-path-1_1_" d="m1.137 0c-0.627 0-1.137 0.428-1.137 1.01v1.981c0 0.558 0.494 1.01 1.139 1.01h47.671c0.628 0 1.138-0.428 1.138-1.01v-1.981c0-0.558-0.494-1.01-1.138-1.01h-47.673zm0 10.003c-0.627 0-1.137 0.428-1.137 1.01v1.98c0 0.557 0.494 1.01 1.139 1.01h47.671c0.628 0 1.138-0.428 1.138-1.01v-1.98c0-0.558-0.494-1.01-1.138-1.01h-47.673zm0 10.002c-0.627 0-1.137 0.429-1.137 1.011v1.981c0 0.557 0.494 1.01 1.139 1.01h47.671c0.628 0 1.138-0.428 1.138-1.01v-1.981c0-0.558-0.494-1.011-1.138-1.011h-47.673z" fill="#d22856"/>	</g></g></svg><svg xmlns:xlink="http://www.w3.org/1999/xlink" id="icon-menu-burger" xml:space="preserve" height="32" viewBox="-4 -4 57.945 32.007" width="58" version="1.0" y="336" x="0px" enable-background="new 0 0 49.945 24.007"><g id="icon-menu-burger-miu">	<g id="icon-menu-burger-editor_list_view_hambuger_menu_glyph">			<path id="icon-menu-burger-path-1" d="m1.137 0c-0.627 0-1.137 0.428-1.137 1.01v1.981c0 0.558 0.494 1.01 1.139 1.01h47.671c0.628 0 1.138-0.428 1.138-1.01v-1.981c0-0.558-0.494-1.01-1.138-1.01h-47.673zm0 10.003c-0.627 0-1.137 0.428-1.137 1.01v1.98c0 0.557 0.494 1.01 1.139 1.01h47.671c0.628 0 1.138-0.428 1.138-1.01v-1.98c0-0.558-0.494-1.01-1.138-1.01h-47.673zm0 10.002c-0.627 0-1.137 0.429-1.137 1.011v1.981c0 0.557 0.494 1.01 1.139 1.01h47.671c0.628 0 1.138-0.428 1.138-1.01v-1.981c0-0.558-0.494-1.011-1.138-1.011h-47.673z" fill="#fff"/>			<path id="icon-menu-burger-path-1_1_" d="m1.137 0c-0.627 0-1.137 0.428-1.137 1.01v1.981c0 0.558 0.494 1.01 1.139 1.01h47.671c0.628 0 1.138-0.428 1.138-1.01v-1.981c0-0.558-0.494-1.01-1.138-1.01h-47.673zm0 10.003c-0.627 0-1.137 0.428-1.137 1.01v1.98c0 0.557 0.494 1.01 1.139 1.01h47.671c0.628 0 1.138-0.428 1.138-1.01v-1.98c0-0.558-0.494-1.01-1.138-1.01h-47.673zm0 10.002c-0.627 0-1.137 0.429-1.137 1.011v1.981c0 0.557 0.494 1.01 1.139 1.01h47.671c0.628 0 1.138-0.428 1.138-1.01v-1.981c0-0.558-0.494-1.011-1.138-1.011h-47.673z" fill="#fff"/>	</g></g></svg><svg xmlns:xlink="http://www.w3.org/1999/xlink" id="icon-menu-cross-hover" xml:space="preserve" height="32" viewBox="-4 -4 31.867 31.867" width="32" version="1.0" y="368" x="0px" enable-background="new 0 0 23.867 23.867"><path d="m15.087 11.933l8.56-8.559c0.293-0.293 0.293-0.768 0-1.061l-2.093-2.093c-0.14-0.141-0.331-0.22-0.531-0.22-0.199 0-0.391 0.079-0.529 0.22l-8.561 8.56-8.56-8.56c-0.282-0.282-0.78-0.282-1.061 0l-2.092 2.093c-0.293 0.293-0.293 0.768 0 1.061l8.56 8.559-8.56 8.559c-0.293 0.293-0.293 0.768 0 1.062l2.093 2.094c0.141 0.142 0.331 0.22 0.53 0.22s0.39-0.078 0.53-0.22l8.561-8.56 8.56 8.56c0.141 0.142 0.332 0.22 0.53 0.22 0.199 0 0.39-0.078 0.53-0.22l2.093-2.094c0.293-0.294 0.293-0.769 0-1.062l-8.56-8.559z" fill="#d22856"/></svg><svg xmlns:xlink="http://www.w3.org/1999/xlink" id="icon-menu-cross" xml:space="preserve" height="32" viewBox="-4 -4 31.867 31.867" width="32" version="1.0" y="400" x="0px" enable-background="new 0 0 23.867 23.867"><path d="m15.087 11.933l8.56-8.559c0.293-0.293 0.293-0.768 0-1.061l-2.093-2.093c-0.14-0.141-0.331-0.22-0.531-0.22-0.199 0-0.391 0.079-0.529 0.22l-8.561 8.56-8.56-8.56c-0.282-0.282-0.78-0.282-1.061 0l-2.092 2.093c-0.293 0.293-0.293 0.768 0 1.061l8.56 8.559-8.56 8.559c-0.293 0.293-0.293 0.768 0 1.062l2.093 2.094c0.141 0.142 0.331 0.22 0.53 0.22s0.39-0.078 0.53-0.22l8.561-8.56 8.56 8.56c0.141 0.142 0.332 0.22 0.53 0.22 0.199 0 0.39-0.078 0.53-0.22l2.093-2.094c0.293-0.294 0.293-0.769 0-1.062l-8.56-8.559z" fill="#fff"/></svg><svg xmlns:xlink="http://www.w3.org/1999/xlink" id="icon-review-arrow-left" xml:space="preserve" height="50" viewBox="-4 -4 29.706 49.719" width="30" version="1.1" y="432" x="0px" enable-background="new 0 0 21.706 41.719"><path d="m2.045 20.859l19.413-19.413c0.331-0.331 0.331-0.867 0-1.198-0.33-0.331-0.867-0.331-1.197 0l-20.013 20.013c-0.331 0.33-0.331 0.867 0 1.197l20.013 20.013c0.164 0.165 0.382 0.248 0.599 0.248s0.434-0.083 0.599-0.248c0.331-0.331 0.331-0.867 0-1.198l-19.414-19.414z" fill="#283645"/></svg><svg xmlns:xlink="http://www.w3.org/1999/xlink" id="icon-review-arrow-right" xml:space="preserve" height="50" viewBox="-4 -4 29.706 49.719" width="30" version="1.1" y="482" x="0px" enable-background="new 0 0 21.706 41.719"><path d="m19.661 20.859l-19.413-19.413c-0.331-0.331-0.331-0.867 0-1.198 0.33-0.331 0.867-0.331 1.197 0l20.013 20.012c0.33 0.33 0.33 0.867 0 1.197l-20.013 20.014c-0.164 0.165-0.382 0.248-0.599 0.248s-0.434-0.083-0.599-0.248c-0.331-0.331-0.331-0.867 0-1.198l19.414-19.414z" fill="#283645"/></svg></svg>
