<?xml version="1.0"?>
<!--Icons from directory ""-->
<svg xmlns="http://www.w3.org/2000/svg" width="154" height="446" viewBox="0 0 154 446"><svg xmlns:xlink="http://www.w3.org/1999/xlink" id="logo-pink-blue-desktop-hover" xml:space="preserve" height="48" viewBox="-4 -4 154.3 48.375" width="154" version="1.1" y="0" x="0px" enable-background="new 0 0 146.3 40.375"><g fill="#d22856">	<path d="m71.874 18.661c0-0.708 0.58-1.288 1.256-1.288h7.18c5.087 0 8.436 2.704 8.436 7.146v0.063c0 4.86-4.057 7.373-8.854 7.373h-5.475v6.825c0 0.708-0.58 1.287-1.289 1.287-0.676 0-1.256-0.58-1.256-1.287l0.002-20.119zm8.114 10.98c3.734 0 6.182-1.996 6.182-4.959v-0.062c0-3.221-2.414-4.894-6.053-4.894h-5.699v9.917h5.57v-0.002z"/>	<path d="m93.603 18.5c0-0.708 0.579-1.288 1.255-1.288 0.709 0 1.288 0.58 1.288 1.288v20.283c0 0.708-0.579 1.287-1.288 1.287-0.676 0-1.255-0.579-1.255-1.287v-20.283z"/>	<path d="m102.74 18.532c0-0.676 0.58-1.256 1.256-1.256h0.354c0.58 0 0.935 0.29 1.288 0.74l13.684 17.45v-16.998c0-0.676 0.547-1.256 1.256-1.256 0.676 0 1.225 0.58 1.225 1.256v20.349c0 0.677-0.48 1.19-1.158 1.19h-0.129c-0.548 0-0.936-0.321-1.318-0.772l-13.976-17.867v17.449c0 0.677-0.547 1.257-1.257 1.257-0.676 0-1.223-0.58-1.223-1.257v-20.285h0.01z"/>	<path d="m128.17 18.5c0-0.708 0.58-1.288 1.257-1.288 0.708 0 1.286 0.58 1.286 1.288v12.331l12.848-13.168c0.29-0.257 0.579-0.451 0.998-0.451 0.676 0 1.225 0.612 1.225 1.256 0 0.354-0.162 0.644-0.42 0.901l-7.984 7.92 8.564 10.561c0.225 0.291 0.354 0.547 0.354 0.936 0 0.676-0.577 1.288-1.285 1.288-0.482 0-0.807-0.259-1.03-0.58l-8.401-10.464-4.863 4.861v4.895c0 0.708-0.578 1.288-1.286 1.288-0.677 0-1.257-0.58-1.257-1.288v-20.286h-0.01z"/></g><path d="m98.498 9.875c-2.002 0-3.623-1.623-3.623-3.624 0 2.001-1.623 3.624-3.625 3.624 2.002 0 3.625 1.623 3.625 3.624 0-2.001 1.621-3.624 3.623-3.624z" fill="#d22856"/><g fill="#D22856">	<path d="m43.094 19.313c0.246 0 0.489 0.014 0.73 0.033-0.437-0.728-1.227-1.221-2.136-1.221-0.877 0-1.614-0.568-1.884-1.354-0.727 0.208-1.425 0.482-2.089 0.816 0.062 0.017 0.122 0.038 0.188 0.038 1.104 0 2 0.896 2 2 0 0.096-0.015 0.188-0.028 0.281 1-0.382 2.084-0.593 3.219-0.593z"/>	<path d="m60.462 28.016c-0.002-0.009-5.175-21.365-5.175-21.365-0.361-2.348-2.593-6.651-8.599-6.651-0.829 0-1.5 0.671-1.5 1.5s0.671 1.5 1.5 1.5c4.856 0 5.575 3.729 5.639 4.143l4.767 19.701h-2.073c-0.445-3.557-2.453-6.628-5.305-8.522-0.897 0.379-1.529 1.269-1.529 2.303 0 0.088-0.015 0.171-0.026 0.256 1.991 1.358 3.415 3.489 3.829 5.965 0.082 0.488 0.135 0.987 0.135 1.5 0 0.512-0.053 1.012-0.135 1.5-0.716 4.271-4.421 7.53-8.896 7.53s-8.181-3.259-8.896-7.53c-0.082-0.488-0.135-0.988-0.135-1.5 0-0.513 0.053-1.012 0.135-1.5 0.147-0.879 0.427-1.712 0.808-2.484-1.034-0.077-1.852-0.932-1.852-1.984 0-0.189-0.077-0.357-0.192-0.488-0.938 1.469-1.569 3.149-1.795 4.957h-1.82c-0.741-5.927-5.802-10.531-11.927-10.531s-11.185 4.601-11.927 10.528h-2.073l4.767-19.701c0.063-0.414 0.783-4.143 5.639-4.143 0.829 0 1.5-0.671 1.5-1.5s-0.671-1.5-1.5-1.5c-6.006 0-8.238 4.303-8.599 6.651 0 0-5.173 21.356-5.175 21.365-0.266 1.109 0.531 1.826 1.426 1.826 0.012 0 0.023 0.004 0.036 0.004h3.982c0.079 0.629 0.215 1.237 0.387 1.831 0.059-0.106 0.102-0.224 0.102-0.354 0-1.104 0.896-2 2-2 0.166 0 0.324 0.024 0.478 0.062-0.043-0.343-0.074-0.688-0.074-1.042 0-0.512 0.053-1.011 0.135-1.5 0.715-4.271 4.421-7.531 8.896-7.531s8.18 3.26 8.896 7.531c0.082 0.489 0.135 0.988 0.135 1.5s-0.053 1.012-0.135 1.5c-0.715 4.272-4.421 7.531-8.896 7.531-2.022 0-3.883-0.67-5.386-1.794-0.35 0.302-0.8 0.491-1.299 0.491-0.413 0-0.749 0.336-0.749 0.748 0 0.289-0.065 0.563-0.176 0.812 2.075 1.708 4.722 2.743 7.614 2.743 6.125 0 11.185-4.604 11.927-10.529h1.814c0.742 5.926 5.802 10.529 11.927 10.529s11.186-4.604 11.927-10.529h3.981c0.012 0 0.023-0.005 0.036-0.005 0.895 0.002 1.692-0.715 1.426-1.824z"/></g>		<path d="m50.686 16.125c-2.485 0-4.499-2.014-4.499-4.499 0 2.485-2.014 4.499-4.499 4.499 2.485 0 4.499 2.014 4.499 4.499 0-2.485 2.013-4.499 4.499-4.499z" fill="#283645"/>		<path d="m37.904 19.626c-1.519 0-2.749-1.23-2.749-2.749 0 1.519-1.23 2.749-2.749 2.749 1.519 0 2.749 1.229 2.749 2.749 0-1.52 1.231-2.749 2.749-2.749z" fill="#283645"/>		<path d="m10.734 34.072c-1.519 0-2.749-1.23-2.749-2.75 0 1.52-1.23 2.75-2.749 2.75 1.519 0 2.749 1.229 2.749 2.748 0-1.517 1.23-2.748 2.749-2.748z" fill="#283645"/></svg><svg xmlns:xlink="http://www.w3.org/1999/xlink" id="logo-pink-blue-desktop" xml:space="preserve" height="48" viewBox="-4 -4 154.3 48.375" width="154" version="1.1" y="48" x="0px" enable-background="new 0 0 146.3 40.375"><g fill="#283645">	<path d="m71.874 18.661c0-0.708 0.58-1.288 1.256-1.288h7.18c5.087 0 8.436 2.704 8.436 7.146v0.063c0 4.86-4.057 7.373-8.854 7.373h-5.475v6.825c0 0.708-0.58 1.287-1.289 1.287-0.676 0-1.256-0.58-1.256-1.287l0.002-20.119zm8.114 10.98c3.734 0 6.182-1.996 6.182-4.959v-0.062c0-3.221-2.414-4.894-6.053-4.894h-5.699v9.917h5.57v-0.002z"/>	<path d="m93.603 18.5c0-0.708 0.579-1.288 1.255-1.288 0.709 0 1.288 0.58 1.288 1.288v20.283c0 0.708-0.579 1.287-1.288 1.287-0.676 0-1.255-0.579-1.255-1.287v-20.283z"/>	<path d="m102.74 18.532c0-0.676 0.58-1.256 1.256-1.256h0.354c0.58 0 0.935 0.29 1.288 0.74l13.684 17.45v-16.998c0-0.676 0.547-1.256 1.256-1.256 0.676 0 1.225 0.58 1.225 1.256v20.349c0 0.677-0.48 1.19-1.158 1.19h-0.129c-0.548 0-0.936-0.321-1.318-0.772l-13.976-17.867v17.449c0 0.677-0.547 1.257-1.257 1.257-0.676 0-1.223-0.58-1.223-1.257v-20.285h0.01z"/>	<path d="m128.17 18.5c0-0.708 0.58-1.288 1.257-1.288 0.708 0 1.286 0.58 1.286 1.288v12.331l12.848-13.168c0.29-0.257 0.579-0.451 0.998-0.451 0.676 0 1.225 0.612 1.225 1.256 0 0.354-0.162 0.644-0.42 0.901l-7.984 7.92 8.564 10.561c0.225 0.291 0.354 0.547 0.354 0.936 0 0.676-0.577 1.288-1.285 1.288-0.482 0-0.807-0.259-1.03-0.58l-8.401-10.464-4.863 4.861v4.895c0 0.708-0.578 1.288-1.286 1.288-0.677 0-1.257-0.58-1.257-1.288v-20.286h-0.01z"/></g><path d="m98.498 9.875c-2.002 0-3.623-1.623-3.623-3.624 0 2.001-1.623 3.624-3.625 3.624 2.002 0 3.625 1.623 3.625 3.624 0-2.001 1.621-3.624 3.623-3.624z" fill="#D22856"/><g fill="#D22856">	<path d="m43.094 19.313c0.246 0 0.489 0.014 0.73 0.033-0.437-0.728-1.227-1.221-2.136-1.221-0.877 0-1.614-0.568-1.884-1.354-0.727 0.208-1.425 0.482-2.089 0.816 0.062 0.017 0.122 0.038 0.188 0.038 1.104 0 2 0.896 2 2 0 0.096-0.015 0.188-0.028 0.281 1-0.382 2.084-0.593 3.219-0.593z"/>	<path d="m60.462 28.016c-0.002-0.009-5.175-21.365-5.175-21.365-0.361-2.348-2.593-6.651-8.599-6.651-0.829 0-1.5 0.671-1.5 1.5s0.671 1.5 1.5 1.5c4.856 0 5.575 3.729 5.639 4.143l4.767 19.701h-2.073c-0.445-3.557-2.453-6.628-5.305-8.522-0.897 0.379-1.529 1.269-1.529 2.303 0 0.088-0.015 0.171-0.026 0.256 1.991 1.358 3.415 3.489 3.829 5.965 0.082 0.488 0.135 0.987 0.135 1.5 0 0.512-0.053 1.012-0.135 1.5-0.716 4.271-4.421 7.53-8.896 7.53s-8.181-3.259-8.896-7.53c-0.082-0.488-0.135-0.988-0.135-1.5 0-0.513 0.053-1.012 0.135-1.5 0.147-0.879 0.427-1.712 0.808-2.484-1.034-0.077-1.852-0.932-1.852-1.984 0-0.189-0.077-0.357-0.192-0.488-0.938 1.469-1.569 3.149-1.795 4.957h-1.82c-0.741-5.927-5.802-10.531-11.927-10.531s-11.185 4.601-11.927 10.528h-2.073l4.767-19.701c0.063-0.414 0.783-4.143 5.639-4.143 0.829 0 1.5-0.671 1.5-1.5s-0.671-1.5-1.5-1.5c-6.006 0-8.238 4.303-8.599 6.651 0 0-5.173 21.356-5.175 21.365-0.266 1.109 0.531 1.826 1.426 1.826 0.012 0 0.023 0.004 0.036 0.004h3.982c0.079 0.629 0.215 1.237 0.387 1.831 0.059-0.106 0.102-0.224 0.102-0.354 0-1.104 0.896-2 2-2 0.166 0 0.324 0.024 0.478 0.062-0.043-0.343-0.074-0.688-0.074-1.042 0-0.512 0.053-1.011 0.135-1.5 0.715-4.271 4.421-7.531 8.896-7.531s8.18 3.26 8.896 7.531c0.082 0.489 0.135 0.988 0.135 1.5s-0.053 1.012-0.135 1.5c-0.715 4.272-4.421 7.531-8.896 7.531-2.022 0-3.883-0.67-5.386-1.794-0.35 0.302-0.8 0.491-1.299 0.491-0.413 0-0.749 0.336-0.749 0.748 0 0.289-0.065 0.563-0.176 0.812 2.075 1.708 4.722 2.743 7.614 2.743 6.125 0 11.185-4.604 11.927-10.529h1.814c0.742 5.926 5.802 10.529 11.927 10.529s11.186-4.604 11.927-10.529h3.981c0.012 0 0.023-0.005 0.036-0.005 0.895 0.002 1.692-0.715 1.426-1.824z"/></g>		<path d="m50.686 16.125c-2.485 0-4.499-2.014-4.499-4.499 0 2.485-2.014 4.499-4.499 4.499 2.485 0 4.499 2.014 4.499 4.499 0-2.485 2.013-4.499 4.499-4.499z" fill="#283645"/>		<path d="m37.904 19.626c-1.519 0-2.749-1.23-2.749-2.749 0 1.519-1.23 2.749-2.749 2.749 1.519 0 2.749 1.229 2.749 2.749 0-1.52 1.231-2.749 2.749-2.749z" fill="#283645"/>		<path d="m10.734 34.072c-1.519 0-2.749-1.23-2.749-2.75 0 1.52-1.23 2.75-2.749 2.75 1.519 0 2.749 1.229 2.749 2.748 0-1.517 1.23-2.748 2.749-2.748z" fill="#283645"/></svg><svg xmlns:xlink="http://www.w3.org/1999/xlink" id="logo-pink-blue-mobile-hover" xml:space="preserve" height="48" viewBox="-4 -4 154.3 48.375" width="154" version="1.1" y="96" x="0px" enable-background="new 0 0 146.3 40.375"><g fill="#d22856">	<path d="m71.874 18.661c0-0.708 0.58-1.288 1.256-1.288h7.18c5.087 0 8.436 2.704 8.436 7.146v0.063c0 4.86-4.057 7.373-8.854 7.373h-5.475v6.825c0 0.708-0.58 1.287-1.289 1.287-0.676 0-1.256-0.58-1.256-1.287l0.002-20.119zm8.114 10.98c3.734 0 6.182-1.996 6.182-4.959v-0.062c0-3.221-2.414-4.894-6.053-4.894h-5.699v9.917h5.57v-0.002z"/>	<path d="m93.603 18.5c0-0.708 0.579-1.288 1.255-1.288 0.709 0 1.288 0.58 1.288 1.288v20.283c0 0.708-0.579 1.287-1.288 1.287-0.676 0-1.255-0.579-1.255-1.287v-20.283z"/>	<path d="m102.74 18.532c0-0.676 0.58-1.256 1.256-1.256h0.354c0.58 0 0.935 0.29 1.288 0.74l13.684 17.45v-16.998c0-0.676 0.547-1.256 1.256-1.256 0.676 0 1.225 0.58 1.225 1.256v20.349c0 0.677-0.48 1.19-1.158 1.19h-0.129c-0.548 0-0.936-0.321-1.318-0.772l-13.976-17.867v17.449c0 0.677-0.547 1.257-1.257 1.257-0.676 0-1.223-0.58-1.223-1.257v-20.285h0.01z"/>	<path d="m128.17 18.5c0-0.708 0.58-1.288 1.257-1.288 0.708 0 1.286 0.58 1.286 1.288v12.331l12.848-13.168c0.29-0.257 0.579-0.451 0.998-0.451 0.676 0 1.225 0.612 1.225 1.256 0 0.354-0.162 0.644-0.42 0.901l-7.984 7.92 8.564 10.561c0.225 0.291 0.354 0.547 0.354 0.936 0 0.676-0.577 1.288-1.285 1.288-0.482 0-0.807-0.259-1.03-0.58l-8.401-10.464-4.863 4.861v4.895c0 0.708-0.578 1.288-1.286 1.288-0.677 0-1.257-0.58-1.257-1.288v-20.286h-0.01z"/></g><path d="m60.498 28.266" fill="#fff"/><path d="m60.462 28.016c-0.002-0.009-5.175-21.365-5.175-21.365-0.361-2.348-2.593-6.651-8.599-6.651-0.829 0-1.5 0.671-1.5 1.5s0.671 1.5 1.5 1.5c4.856 0 5.575 3.729 5.639 4.143l4.767 19.701h-2.073c-0.742-5.927-5.802-10.531-11.927-10.531s-11.186 4.604-11.927 10.531h-1.82c-0.741-5.927-5.802-10.531-11.927-10.531s-11.185 4.604-11.927 10.531h-2.073l4.767-19.701c0.063-0.414 0.783-4.143 5.639-4.143 0.829 0 1.5-0.671 1.5-1.5s-0.671-1.5-1.5-1.5c-6.006 0-8.238 4.303-8.599 6.651 0 0-5.173 21.356-5.175 21.365-0.266 1.109 0.531 1.826 1.426 1.826 0.012 0 0.023 0.004 0.036 0.004h3.982c0.741 5.926 5.802 10.53 11.927 10.53s11.185-4.604 11.927-10.53h1.814c0.742 5.926 5.802 10.53 11.927 10.53s11.186-4.604 11.927-10.53h3.982c0.012 0 0.023-0.004 0.036-0.004 0.895 0 1.692-0.717 1.426-1.826zm-34.147 1.828c-0.715 4.272-4.421 7.531-8.896 7.531s-8.18-3.259-8.896-7.531c-0.082-0.488-0.135-0.988-0.135-1.5s0.053-1.011 0.135-1.5c0.715-4.271 4.421-7.531 8.896-7.531s8.18 3.26 8.896 7.531c0.082 0.489 0.135 0.988 0.135 1.5s-0.053 1.011-0.135 1.5zm25.675 0c-0.716 4.272-4.421 7.531-8.896 7.531s-8.181-3.259-8.896-7.531c-0.082-0.488-0.135-0.988-0.135-1.5s0.053-1.011 0.135-1.5c0.716-4.271 4.421-7.531 8.896-7.531s8.181 3.26 8.896 7.531c0.082 0.489 0.135 0.988 0.135 1.5s-0.053 1.011-0.135 1.5z" fill="#D22856"/></svg><svg xmlns:xlink="http://www.w3.org/1999/xlink" id="logo-pink-blue-mobile" xml:space="preserve" height="48" viewBox="-4 -4 154.3 48.375" width="154" version="1.1" y="144" x="0px" enable-background="new 0 0 146.3 40.375"><g fill="#283645">	<path d="m71.874 18.661c0-0.708 0.58-1.288 1.256-1.288h7.18c5.087 0 8.436 2.704 8.436 7.146v0.063c0 4.86-4.057 7.373-8.854 7.373h-5.475v6.825c0 0.708-0.58 1.287-1.289 1.287-0.676 0-1.256-0.58-1.256-1.287l0.002-20.119zm8.114 10.98c3.734 0 6.182-1.996 6.182-4.959v-0.062c0-3.221-2.414-4.894-6.053-4.894h-5.699v9.917h5.57v-0.002z"/>	<path d="m93.603 18.5c0-0.708 0.579-1.288 1.255-1.288 0.709 0 1.288 0.58 1.288 1.288v20.283c0 0.708-0.579 1.287-1.288 1.287-0.676 0-1.255-0.579-1.255-1.287v-20.283z"/>	<path d="m102.74 18.532c0-0.676 0.58-1.256 1.256-1.256h0.354c0.58 0 0.935 0.29 1.288 0.74l13.684 17.45v-16.998c0-0.676 0.547-1.256 1.256-1.256 0.676 0 1.225 0.58 1.225 1.256v20.349c0 0.677-0.48 1.19-1.158 1.19h-0.129c-0.548 0-0.936-0.321-1.318-0.772l-13.976-17.867v17.449c0 0.677-0.547 1.257-1.257 1.257-0.676 0-1.223-0.58-1.223-1.257v-20.285h0.01z"/>	<path d="m128.17 18.5c0-0.708 0.58-1.288 1.257-1.288 0.708 0 1.286 0.58 1.286 1.288v12.331l12.848-13.168c0.29-0.257 0.579-0.451 0.998-0.451 0.676 0 1.225 0.612 1.225 1.256 0 0.354-0.162 0.644-0.42 0.901l-7.984 7.92 8.564 10.561c0.225 0.291 0.354 0.547 0.354 0.936 0 0.676-0.577 1.288-1.285 1.288-0.482 0-0.807-0.259-1.03-0.58l-8.401-10.464-4.863 4.861v4.895c0 0.708-0.578 1.288-1.286 1.288-0.677 0-1.257-0.58-1.257-1.288v-20.286h-0.01z"/></g><path d="m60.498 28.266" fill="#fff"/><path d="m60.462 28.016c-0.002-0.009-5.175-21.365-5.175-21.365-0.361-2.348-2.593-6.651-8.599-6.651-0.829 0-1.5 0.671-1.5 1.5s0.671 1.5 1.5 1.5c4.856 0 5.575 3.729 5.639 4.143l4.767 19.701h-2.073c-0.742-5.927-5.802-10.531-11.927-10.531s-11.186 4.604-11.927 10.531h-1.82c-0.741-5.927-5.802-10.531-11.927-10.531s-11.185 4.604-11.927 10.531h-2.073l4.767-19.701c0.063-0.414 0.783-4.143 5.639-4.143 0.829 0 1.5-0.671 1.5-1.5s-0.671-1.5-1.5-1.5c-6.006 0-8.238 4.303-8.599 6.651 0 0-5.173 21.356-5.175 21.365-0.266 1.109 0.531 1.826 1.426 1.826 0.012 0 0.023 0.004 0.036 0.004h3.982c0.741 5.926 5.802 10.53 11.927 10.53s11.185-4.604 11.927-10.53h1.814c0.742 5.926 5.802 10.53 11.927 10.53s11.186-4.604 11.927-10.53h3.982c0.012 0 0.023-0.004 0.036-0.004 0.895 0 1.692-0.717 1.426-1.826zm-34.147 1.828c-0.715 4.272-4.421 7.531-8.896 7.531s-8.18-3.259-8.896-7.531c-0.082-0.488-0.135-0.988-0.135-1.5s0.053-1.011 0.135-1.5c0.715-4.271 4.421-7.531 8.896-7.531s8.18 3.26 8.896 7.531c0.082 0.489 0.135 0.988 0.135 1.5s-0.053 1.011-0.135 1.5zm25.675 0c-0.716 4.272-4.421 7.531-8.896 7.531s-8.181-3.259-8.896-7.531c-0.082-0.488-0.135-0.988-0.135-1.5s0.053-1.011 0.135-1.5c0.716-4.271 4.421-7.531 8.896-7.531s8.181 3.26 8.896 7.531c0.082 0.489 0.135 0.988 0.135 1.5s-0.053 1.011-0.135 1.5z" fill="#D22856"/></svg><svg xmlns:xlink="http://www.w3.org/1999/xlink" id="logo-pink-white-desktop-hover" xml:space="preserve" height="48" viewBox="-4 -4 154.3 48.375" width="154" version="1.1" y="192" x="0px" enable-background="new 0 0 146.3 40.375"><g fill="#d22856">	<path d="m71.874 18.661c0-0.708 0.58-1.288 1.256-1.288h7.18c5.087 0 8.436 2.704 8.436 7.146v0.064c0 4.861-4.057 7.373-8.854 7.373h-5.475v6.825c0 0.708-0.58 1.288-1.288 1.288-0.676 0-1.256-0.58-1.256-1.288v-20.12zm8.114 10.98c3.734 0 6.182-1.996 6.182-4.959v-0.063c0-3.22-2.414-4.894-6.053-4.894h-5.699v9.917h5.57v-0.001z"/>	<path d="m93.603 18.5c0-0.708 0.579-1.288 1.255-1.288 0.709 0 1.288 0.58 1.288 1.288v20.283c0 0.708-0.579 1.287-1.288 1.287-0.676 0-1.255-0.579-1.255-1.287v-20.283z"/>	<path d="m102.74 18.532c0-0.676 0.58-1.256 1.256-1.256h0.354c0.58 0 0.935 0.29 1.288 0.74l13.684 17.45v-16.998c0-0.676 0.547-1.256 1.256-1.256 0.676 0 1.224 0.58 1.224 1.256v20.349c0 0.676-0.481 1.19-1.158 1.19h-0.129c-0.548 0-0.935-0.321-1.319-0.772l-13.975-17.868v17.45c0 0.676-0.547 1.256-1.256 1.256-0.676 0-1.223-0.58-1.223-1.256v-20.285z"/>	<path d="m128.17 18.5c0-0.708 0.58-1.288 1.257-1.288 0.708 0 1.286 0.58 1.286 1.288v12.331l12.848-13.168c0.29-0.257 0.579-0.451 0.998-0.451 0.676 0 1.225 0.612 1.225 1.256 0 0.354-0.162 0.644-0.42 0.901l-7.984 7.92 8.564 10.561c0.225 0.291 0.354 0.547 0.354 0.935 0 0.676-0.578 1.288-1.286 1.288-0.483 0-0.806-0.258-1.03-0.58l-8.402-10.463-4.863 4.861v4.894c0 0.708-0.578 1.288-1.286 1.288-0.677 0-1.257-0.58-1.257-1.288v-20.285h-0.01z"/></g><path d="m98.498 9.875c-2.002 0-3.623-1.623-3.623-3.624 0 2.001-1.623 3.624-3.625 3.624 2.002 0 3.625 1.623 3.625 3.624 0-2.001 1.621-3.624 3.623-3.624z" fill="#d22856"/><g fill="#d22856">	<path d="m43.094 19.313c0.246 0 0.489 0.014 0.73 0.033-0.437-0.728-1.227-1.221-2.136-1.221-0.877 0-1.614-0.568-1.884-1.354-0.727 0.208-1.425 0.482-2.089 0.816 0.062 0.017 0.122 0.038 0.188 0.038 1.104 0 2 0.896 2 2 0 0.096-0.015 0.188-0.028 0.281 1-0.382 2.084-0.593 3.219-0.593z"/>	<path d="m60.462 28.016c-0.002-0.009-5.175-21.365-5.175-21.365-0.361-2.348-2.593-6.651-8.599-6.651-0.829 0-1.5 0.671-1.5 1.5s0.671 1.5 1.5 1.5c4.856 0 5.575 3.729 5.639 4.143l4.767 19.701h-2.073c-0.445-3.557-2.453-6.628-5.305-8.522-0.897 0.379-1.529 1.269-1.529 2.303 0 0.088-0.015 0.171-0.026 0.256 1.991 1.358 3.415 3.489 3.829 5.964 0.082 0.489 0.135 0.988 0.135 1.5s-0.053 1.012-0.135 1.5c-0.716 4.272-4.421 7.531-8.896 7.531s-8.181-3.259-8.896-7.531c-0.082-0.488-0.135-0.988-0.135-1.5s0.053-1.011 0.135-1.5c0.147-0.878 0.427-1.711 0.808-2.483-1.034-0.078-1.852-0.932-1.852-1.985 0-0.189-0.077-0.357-0.192-0.489-0.938 1.469-1.569 3.15-1.795 4.958h-1.82c-0.741-5.927-5.802-10.531-11.927-10.531s-11.185 4.602-11.927 10.529h-2.073l4.767-19.701c0.063-0.414 0.783-4.143 5.639-4.143 0.829 0 1.5-0.671 1.5-1.5s-0.671-1.5-1.5-1.5c-6.006 0-8.238 4.303-8.599 6.651 0 0-5.173 21.356-5.175 21.365-0.266 1.109 0.531 1.826 1.426 1.826 0.012 0 0.023 0.004 0.036 0.004h3.982c0.079 0.628 0.215 1.237 0.387 1.831 0.059-0.106 0.102-0.224 0.102-0.354 0-1.104 0.896-2 2-2 0.166 0 0.324 0.025 0.478 0.063-0.043-0.343-0.074-0.688-0.074-1.042 0-0.512 0.053-1.011 0.135-1.5 0.715-4.271 4.421-7.531 8.896-7.531s8.18 3.26 8.896 7.531c0.082 0.489 0.135 0.988 0.135 1.5s-0.053 1.012-0.135 1.5c-0.715 4.272-4.421 7.531-8.896 7.531-2.022 0-3.883-0.67-5.386-1.794-0.35 0.302-0.8 0.491-1.299 0.491-0.413 0-0.749 0.336-0.749 0.748 0 0.29-0.065 0.564-0.176 0.812 2.075 1.708 4.722 2.743 7.614 2.743 6.125 0 11.185-4.604 11.927-10.53h1.814c0.742 5.926 5.802 10.53 11.927 10.53s11.186-4.604 11.927-10.53h3.981c0.012 0 0.023-0.004 0.036-0.004 0.895 0.001 1.692-0.716 1.426-1.825z"/></g>		<path d="m50.686 16.125c-2.485 0-4.499-2.014-4.499-4.499 0 2.485-2.014 4.499-4.499 4.499 2.485 0 4.499 2.014 4.499 4.499 0-2.485 2.013-4.499 4.499-4.499z" fill="#d22856"/>		<path d="m37.904 19.626c-1.519 0-2.749-1.23-2.749-2.749 0 1.519-1.23 2.749-2.749 2.749 1.519 0 2.749 1.229 2.749 2.749 0-1.52 1.231-2.749 2.749-2.749z" fill="#d22856"/>		<path d="m10.734 34.072c-1.519 0-2.749-1.23-2.749-2.75 0 1.52-1.23 2.75-2.749 2.75 1.519 0 2.749 1.229 2.749 2.748 0-1.517 1.23-2.748 2.749-2.748z" fill="#D22856"/></svg><svg xmlns:xlink="http://www.w3.org/1999/xlink" id="logo-pink-white-desktop" xml:space="preserve" height="48" viewBox="-4 -4 154.3 48.375" width="154" version="1.1" y="240" x="0px" enable-background="new 0 0 146.3 40.375"><g fill="#fff">	<path d="m71.874 18.661c0-0.708 0.58-1.288 1.256-1.288h7.18c5.087 0 8.436 2.704 8.436 7.146v0.064c0 4.861-4.057 7.373-8.854 7.373h-5.475v6.825c0 0.708-0.58 1.288-1.288 1.288-0.676 0-1.256-0.58-1.256-1.288v-20.12zm8.114 10.98c3.734 0 6.182-1.996 6.182-4.959v-0.063c0-3.22-2.414-4.894-6.053-4.894h-5.699v9.917h5.57v-0.001z"/>	<path d="m93.603 18.5c0-0.708 0.579-1.288 1.255-1.288 0.709 0 1.288 0.58 1.288 1.288v20.283c0 0.708-0.579 1.287-1.288 1.287-0.676 0-1.255-0.579-1.255-1.287v-20.283z"/>	<path d="m102.74 18.532c0-0.676 0.58-1.256 1.256-1.256h0.354c0.58 0 0.935 0.29 1.288 0.74l13.684 17.45v-16.998c0-0.676 0.547-1.256 1.256-1.256 0.676 0 1.224 0.58 1.224 1.256v20.349c0 0.676-0.481 1.19-1.158 1.19h-0.129c-0.548 0-0.935-0.321-1.319-0.772l-13.975-17.868v17.45c0 0.676-0.547 1.256-1.256 1.256-0.676 0-1.223-0.58-1.223-1.256v-20.285z"/>	<path d="m128.17 18.5c0-0.708 0.58-1.288 1.257-1.288 0.708 0 1.286 0.58 1.286 1.288v12.331l12.848-13.168c0.29-0.257 0.579-0.451 0.998-0.451 0.676 0 1.225 0.612 1.225 1.256 0 0.354-0.162 0.644-0.42 0.901l-7.984 7.92 8.564 10.561c0.225 0.291 0.354 0.547 0.354 0.935 0 0.676-0.578 1.288-1.286 1.288-0.483 0-0.806-0.258-1.03-0.58l-8.402-10.463-4.863 4.861v4.894c0 0.708-0.578 1.288-1.286 1.288-0.677 0-1.257-0.58-1.257-1.288v-20.285h-0.01z"/></g><path d="m98.498 9.875c-2.002 0-3.623-1.623-3.623-3.624 0 2.001-1.623 3.624-3.625 3.624 2.002 0 3.625 1.623 3.625 3.624 0-2.001 1.621-3.624 3.623-3.624z" fill="#D22856"/><g fill="#fff">	<path d="m43.094 19.313c0.246 0 0.489 0.014 0.73 0.033-0.437-0.728-1.227-1.221-2.136-1.221-0.877 0-1.614-0.568-1.884-1.354-0.727 0.208-1.425 0.482-2.089 0.816 0.062 0.017 0.122 0.038 0.188 0.038 1.104 0 2 0.896 2 2 0 0.096-0.015 0.188-0.028 0.281 1-0.382 2.084-0.593 3.219-0.593z"/>	<path d="m60.462 28.016c-0.002-0.009-5.175-21.365-5.175-21.365-0.361-2.348-2.593-6.651-8.599-6.651-0.829 0-1.5 0.671-1.5 1.5s0.671 1.5 1.5 1.5c4.856 0 5.575 3.729 5.639 4.143l4.767 19.701h-2.073c-0.445-3.557-2.453-6.628-5.305-8.522-0.897 0.379-1.529 1.269-1.529 2.303 0 0.088-0.015 0.171-0.026 0.256 1.991 1.358 3.415 3.489 3.829 5.964 0.082 0.489 0.135 0.988 0.135 1.5s-0.053 1.012-0.135 1.5c-0.716 4.272-4.421 7.531-8.896 7.531s-8.181-3.259-8.896-7.531c-0.082-0.488-0.135-0.988-0.135-1.5s0.053-1.011 0.135-1.5c0.147-0.878 0.427-1.711 0.808-2.483-1.034-0.078-1.852-0.932-1.852-1.985 0-0.189-0.077-0.357-0.192-0.489-0.938 1.469-1.569 3.15-1.795 4.958h-1.82c-0.741-5.927-5.802-10.531-11.927-10.531s-11.185 4.602-11.927 10.529h-2.073l4.767-19.701c0.063-0.414 0.783-4.143 5.639-4.143 0.829 0 1.5-0.671 1.5-1.5s-0.671-1.5-1.5-1.5c-6.006 0-8.238 4.303-8.599 6.651 0 0-5.173 21.356-5.175 21.365-0.266 1.109 0.531 1.826 1.426 1.826 0.012 0 0.023 0.004 0.036 0.004h3.982c0.079 0.628 0.215 1.237 0.387 1.831 0.059-0.106 0.102-0.224 0.102-0.354 0-1.104 0.896-2 2-2 0.166 0 0.324 0.025 0.478 0.063-0.043-0.343-0.074-0.688-0.074-1.042 0-0.512 0.053-1.011 0.135-1.5 0.715-4.271 4.421-7.531 8.896-7.531s8.18 3.26 8.896 7.531c0.082 0.489 0.135 0.988 0.135 1.5s-0.053 1.012-0.135 1.5c-0.715 4.272-4.421 7.531-8.896 7.531-2.022 0-3.883-0.67-5.386-1.794-0.35 0.302-0.8 0.491-1.299 0.491-0.413 0-0.749 0.336-0.749 0.748 0 0.29-0.065 0.564-0.176 0.812 2.075 1.708 4.722 2.743 7.614 2.743 6.125 0 11.185-4.604 11.927-10.53h1.814c0.742 5.926 5.802 10.53 11.927 10.53s11.186-4.604 11.927-10.53h3.981c0.012 0 0.023-0.004 0.036-0.004 0.895 0.001 1.692-0.716 1.426-1.825z"/></g>		<path d="m50.686 16.125c-2.485 0-4.499-2.014-4.499-4.499 0 2.485-2.014 4.499-4.499 4.499 2.485 0 4.499 2.014 4.499 4.499 0-2.485 2.013-4.499 4.499-4.499z" fill="#D22856"/>		<path d="m37.904 19.626c-1.519 0-2.749-1.23-2.749-2.749 0 1.519-1.23 2.749-2.749 2.749 1.519 0 2.749 1.229 2.749 2.749 0-1.52 1.231-2.749 2.749-2.749z" fill="#D22856"/>		<path d="m10.734 34.072c-1.519 0-2.749-1.23-2.749-2.75 0 1.52-1.23 2.75-2.749 2.75 1.519 0 2.749 1.229 2.749 2.748 0-1.517 1.23-2.748 2.749-2.748z" fill="#D22856"/></svg><svg xmlns:xlink="http://www.w3.org/1999/xlink" id="logo-pink-white-mobile-hover" xml:space="preserve" height="31" viewBox="-4 -4 82.426 30.859" width="82" version="1.0" y="288" x="0px" enable-background="new 0 0 74.426 22.859"><g fill="#cf2856">	<path d="m0 1.449c0-0.708 0.58-1.288 1.256-1.288h7.18c5.087 0 8.436 2.704 8.436 7.147v0.064c0 4.861-4.057 7.373-8.854 7.373h-5.474v6.825c0 0.708-0.58 1.288-1.288 1.288-0.676 0.001-1.256-0.579-1.256-1.287v-20.122zm8.114 10.979c3.734 0 6.182-1.996 6.182-4.958v-0.065c0-3.22-2.415-4.894-6.054-4.894h-5.698v9.917h5.57z"/>	<path d="m21.729 1.288c0-0.708 0.579-1.288 1.254-1.288 0.709 0 1.288 0.58 1.288 1.288v20.283c0 0.708-0.579 1.288-1.288 1.288-0.676 0-1.255-0.58-1.255-1.288v-20.283z"/>	<path d="m30.87 1.32c0-0.676 0.579-1.256 1.256-1.256h0.354c0.58 0 0.934 0.29 1.288 0.74l13.684 17.45v-16.998c-0.001-0.676 0.546-1.256 1.255-1.256 0.676 0 1.223 0.58 1.223 1.256v20.348c0 0.676-0.482 1.191-1.158 1.191h-0.129c-0.548 0-0.934-0.322-1.32-0.772l-13.974-17.87v17.45c0 0.676-0.547 1.256-1.255 1.256-0.677 0-1.224-0.58-1.224-1.256v-20.283z"/>	<path d="m56.3 1.288c0-0.708 0.579-1.288 1.256-1.288 0.708 0 1.287 0.58 1.287 1.288v12.331l12.846-13.168c0.29-0.258 0.58-0.451 0.999-0.451 0.676 0 1.224 0.612 1.224 1.256 0 0.354-0.161 0.644-0.419 0.901l-7.984 7.92 8.564 10.561c0.225 0.29 0.354 0.547 0.354 0.934 0 0.676-0.579 1.288-1.287 1.288-0.483 0-0.806-0.258-1.03-0.58l-8.403-10.463-4.862 4.861v4.894c0 0.708-0.579 1.288-1.287 1.288-0.677 0-1.256-0.58-1.256-1.288v-20.284z"/></g></svg><svg xmlns:xlink="http://www.w3.org/1999/xlink" id="logo-pink-white-mobile" xml:space="preserve" height="31" viewBox="-4 -4 82.426 30.859" width="82" version="1.0" y="319" x="0px" enable-background="new 0 0 74.426 22.859"><g fill="#fff">	<path d="m0 1.449c0-0.708 0.58-1.288 1.256-1.288h7.18c5.087 0 8.436 2.704 8.436 7.147v0.064c0 4.861-4.057 7.373-8.854 7.373h-5.474v6.825c0 0.708-0.58 1.288-1.288 1.288-0.676 0.001-1.256-0.579-1.256-1.287v-20.122zm8.114 10.979c3.734 0 6.182-1.996 6.182-4.958v-0.065c0-3.22-2.415-4.894-6.054-4.894h-5.698v9.917h5.57z"/>	<path d="m21.729 1.288c0-0.708 0.579-1.288 1.254-1.288 0.709 0 1.288 0.58 1.288 1.288v20.283c0 0.708-0.579 1.288-1.288 1.288-0.676 0-1.255-0.58-1.255-1.288v-20.283z"/>	<path d="m30.87 1.32c0-0.676 0.579-1.256 1.256-1.256h0.354c0.58 0 0.934 0.29 1.288 0.74l13.684 17.45v-16.998c-0.001-0.676 0.546-1.256 1.255-1.256 0.676 0 1.223 0.58 1.223 1.256v20.348c0 0.676-0.482 1.191-1.158 1.191h-0.129c-0.548 0-0.934-0.322-1.32-0.772l-13.974-17.87v17.45c0 0.676-0.547 1.256-1.255 1.256-0.677 0-1.224-0.58-1.224-1.256v-20.283z"/>	<path d="m56.3 1.288c0-0.708 0.579-1.288 1.256-1.288 0.708 0 1.287 0.58 1.287 1.288v12.331l12.846-13.168c0.29-0.258 0.58-0.451 0.999-0.451 0.676 0 1.224 0.612 1.224 1.256 0 0.354-0.161 0.644-0.419 0.901l-7.984 7.92 8.564 10.561c0.225 0.29 0.354 0.547 0.354 0.934 0 0.676-0.579 1.288-1.287 1.288-0.483 0-0.806-0.258-1.03-0.58l-8.403-10.463-4.862 4.861v4.894c0 0.708-0.579 1.288-1.287 1.288-0.677 0-1.256-0.58-1.256-1.288v-20.284z"/></g></svg><svg xmlns:xlink="http://www.w3.org/1999/xlink" id="logo-pink-white-tablet-hover" xml:space="preserve" height="48" viewBox="-4 -4 154.3 48.375" width="154" version="1.1" y="350" x="0px" enable-background="new 0 0 146.3 40.375"><g fill="#d22856">	<path d="m71.874 18.661c0-0.708 0.58-1.288 1.256-1.288h7.18c5.087 0 8.436 2.704 8.436 7.146v0.064c0 4.861-4.057 7.373-8.854 7.373h-5.475v6.825c0 0.708-0.58 1.288-1.288 1.288-0.676 0-1.256-0.58-1.256-1.288v-20.12zm8.114 10.98c3.734 0 6.182-1.996 6.182-4.959v-0.063c0-3.22-2.414-4.894-6.053-4.894h-5.699v9.917h5.57v-0.001z"/>	<path d="m93.603 18.5c0-0.708 0.579-1.288 1.255-1.288 0.709 0 1.288 0.58 1.288 1.288v20.283c0 0.708-0.579 1.287-1.288 1.287-0.676 0-1.255-0.579-1.255-1.287v-20.283z"/>	<path d="m102.74 18.532c0-0.676 0.58-1.256 1.256-1.256h0.354c0.58 0 0.935 0.29 1.288 0.74l13.684 17.45v-16.998c0-0.676 0.547-1.256 1.256-1.256 0.676 0 1.224 0.58 1.224 1.256v20.349c0 0.676-0.481 1.19-1.158 1.19h-0.129c-0.548 0-0.935-0.321-1.319-0.772l-13.975-17.868v17.45c0 0.676-0.547 1.256-1.256 1.256-0.676 0-1.223-0.58-1.223-1.256v-20.285z"/>	<path d="m128.17 18.5c0-0.708 0.58-1.288 1.257-1.288 0.708 0 1.286 0.58 1.286 1.288v12.331l12.848-13.168c0.29-0.257 0.579-0.451 0.998-0.451 0.676 0 1.225 0.612 1.225 1.256 0 0.354-0.162 0.644-0.42 0.901l-7.984 7.92 8.564 10.561c0.225 0.291 0.354 0.547 0.354 0.935 0 0.676-0.578 1.288-1.286 1.288-0.483 0-0.806-0.258-1.03-0.58l-8.402-10.463-4.863 4.861v4.894c0 0.708-0.578 1.288-1.286 1.288-0.677 0-1.257-0.58-1.257-1.288v-20.285h-0.01z"/></g><path d="m60.498 28.266" fill="#d22856"/><path d="m60.462 28.016c-0.002-0.009-5.175-21.365-5.175-21.365-0.361-2.348-2.593-6.651-8.599-6.651-0.829 0-1.5 0.671-1.5 1.5s0.671 1.5 1.5 1.5c4.856 0 5.575 3.729 5.639 4.143l4.767 19.701h-2.073c-0.742-5.927-5.802-10.531-11.927-10.531s-11.186 4.604-11.927 10.531h-1.82c-0.741-5.927-5.802-10.531-11.927-10.531s-11.185 4.604-11.927 10.531h-2.073l4.767-19.701c0.063-0.414 0.783-4.143 5.639-4.143 0.829 0 1.5-0.671 1.5-1.5s-0.671-1.5-1.5-1.5c-6.006 0-8.238 4.303-8.599 6.651 0 0-5.173 21.356-5.175 21.365-0.266 1.109 0.531 1.826 1.426 1.826 0.012 0 0.023 0.004 0.036 0.004h3.982c0.741 5.926 5.802 10.53 11.927 10.53s11.185-4.604 11.927-10.53h1.814c0.742 5.926 5.802 10.53 11.927 10.53s11.186-4.604 11.927-10.53h3.982c0.012 0 0.023-0.004 0.036-0.004 0.895 0 1.692-0.717 1.426-1.826zm-34.147 1.828c-0.715 4.272-4.421 7.531-8.896 7.531s-8.18-3.259-8.896-7.531c-0.082-0.488-0.135-0.988-0.135-1.5s0.053-1.011 0.135-1.5c0.715-4.271 4.421-7.531 8.896-7.531s8.18 3.26 8.896 7.531c0.082 0.489 0.135 0.988 0.135 1.5s-0.053 1.011-0.135 1.5zm25.675 0c-0.716 4.272-4.421 7.531-8.896 7.531s-8.181-3.259-8.896-7.531c-0.082-0.488-0.135-0.988-0.135-1.5s0.053-1.011 0.135-1.5c0.716-4.271 4.421-7.531 8.896-7.531s8.181 3.26 8.896 7.531c0.082 0.489 0.135 0.988 0.135 1.5s-0.053 1.011-0.135 1.5z" fill="#d22856"/></svg><svg xmlns:xlink="http://www.w3.org/1999/xlink" id="logo-pink-white-tablet" xml:space="preserve" height="48" viewBox="-4 -4 154.3 48.375" width="154" version="1.1" y="398" x="0px" enable-background="new 0 0 146.3 40.375"><g fill="#fff">	<path d="m71.874 18.661c0-0.708 0.58-1.288 1.256-1.288h7.18c5.087 0 8.436 2.704 8.436 7.146v0.064c0 4.861-4.057 7.373-8.854 7.373h-5.475v6.825c0 0.708-0.58 1.288-1.288 1.288-0.676 0-1.256-0.58-1.256-1.288v-20.12zm8.114 10.98c3.734 0 6.182-1.996 6.182-4.959v-0.063c0-3.22-2.414-4.894-6.053-4.894h-5.699v9.917h5.57v-0.001z"/>	<path d="m93.603 18.5c0-0.708 0.579-1.288 1.255-1.288 0.709 0 1.288 0.58 1.288 1.288v20.283c0 0.708-0.579 1.287-1.288 1.287-0.676 0-1.255-0.579-1.255-1.287v-20.283z"/>	<path d="m102.74 18.532c0-0.676 0.58-1.256 1.256-1.256h0.354c0.58 0 0.935 0.29 1.288 0.74l13.684 17.45v-16.998c0-0.676 0.547-1.256 1.256-1.256 0.676 0 1.224 0.58 1.224 1.256v20.349c0 0.676-0.481 1.19-1.158 1.19h-0.129c-0.548 0-0.935-0.321-1.319-0.772l-13.975-17.868v17.45c0 0.676-0.547 1.256-1.256 1.256-0.676 0-1.223-0.58-1.223-1.256v-20.285z"/>	<path d="m128.17 18.5c0-0.708 0.58-1.288 1.257-1.288 0.708 0 1.286 0.58 1.286 1.288v12.331l12.848-13.168c0.29-0.257 0.579-0.451 0.998-0.451 0.676 0 1.225 0.612 1.225 1.256 0 0.354-0.162 0.644-0.42 0.901l-7.984 7.92 8.564 10.561c0.225 0.291 0.354 0.547 0.354 0.935 0 0.676-0.578 1.288-1.286 1.288-0.483 0-0.806-0.258-1.03-0.58l-8.402-10.463-4.863 4.861v4.894c0 0.708-0.578 1.288-1.286 1.288-0.677 0-1.257-0.58-1.257-1.288v-20.285h-0.01z"/></g><path d="m60.498 28.266" fill="#fff"/><path d="m60.462 28.016c-0.002-0.009-5.175-21.365-5.175-21.365-0.361-2.348-2.593-6.651-8.599-6.651-0.829 0-1.5 0.671-1.5 1.5s0.671 1.5 1.5 1.5c4.856 0 5.575 3.729 5.639 4.143l4.767 19.701h-2.073c-0.742-5.927-5.802-10.531-11.927-10.531s-11.186 4.604-11.927 10.531h-1.82c-0.741-5.927-5.802-10.531-11.927-10.531s-11.185 4.604-11.927 10.531h-2.073l4.767-19.701c0.063-0.414 0.783-4.143 5.639-4.143 0.829 0 1.5-0.671 1.5-1.5s-0.671-1.5-1.5-1.5c-6.006 0-8.238 4.303-8.599 6.651 0 0-5.173 21.356-5.175 21.365-0.266 1.109 0.531 1.826 1.426 1.826 0.012 0 0.023 0.004 0.036 0.004h3.982c0.741 5.926 5.802 10.53 11.927 10.53s11.185-4.604 11.927-10.53h1.814c0.742 5.926 5.802 10.53 11.927 10.53s11.186-4.604 11.927-10.53h3.982c0.012 0 0.023-0.004 0.036-0.004 0.895 0 1.692-0.717 1.426-1.826zm-34.147 1.828c-0.715 4.272-4.421 7.531-8.896 7.531s-8.18-3.259-8.896-7.531c-0.082-0.488-0.135-0.988-0.135-1.5s0.053-1.011 0.135-1.5c0.715-4.271 4.421-7.531 8.896-7.531s8.18 3.26 8.896 7.531c0.082 0.489 0.135 0.988 0.135 1.5s-0.053 1.011-0.135 1.5zm25.675 0c-0.716 4.272-4.421 7.531-8.896 7.531s-8.181-3.259-8.896-7.531c-0.082-0.488-0.135-0.988-0.135-1.5s0.053-1.011 0.135-1.5c0.716-4.271 4.421-7.531 8.896-7.531s8.181 3.26 8.896 7.531c0.082 0.489 0.135 0.988 0.135 1.5s-0.053 1.011-0.135 1.5z" fill="#fff"/></svg></svg>
